# xmcd
#
# Track frame offsets: 
#        150
#        17893
#        30378
#        44636
#        61541
#        78926
#        94721
#        114457
#        130528
#        147810
#        168419
#        182059
#
# Disc length: 2737 seconds
#
# Revision: 0
# Processed by: cddbd v1.5.2PL0 Copyright (c) Steve Scherf et al.
# Submitted via: ExactAudioCopy v0.99pb3
#
DISCID=8f0aaf0c
DTITLE=Bertrand and - Aux politiques anonymes
DYEAR=2009
DGENRE=Chanson
TTITLE0=Evalue-moi
TTITLE1=Les politiques anonymes
TTITLE2=Une chanson pourrie
TTITLE3=Caddie copain
TTITLE4=Petite flamme 
TTITLE5=Battons le fer 
TTITLE6=L'acariatre
TTITLE7=Laurent Durand
TTITLE8=La petite boule
TTITLE9=Les malheurs de Sophie
TTITLE10=Les vélos de Leo 
TTITLE11=22 caracteres 
EXTD=
EXTT0=
EXTT1=
EXTT2=
EXTT3=
EXTT4=
EXTT5=
EXTT6=
EXTT7=
EXTT8=
EXTT9=
EXTT10=
EXTT11=
PLAYORDER=
